Coordinates
version=1
nRows=21
nColumns=12
inDegrees=yes

Units are S.I. units (second, meters, Newtons, ...)
Angles are in degrees

endheader
time	SC_y	SC_z	SC_x	AC_y	AC_z	AC_x	GH_y	GH_z	GH_yy	EL_x	PS_y
       0.0              -25.66          1.907          59.67          44.35         -12.09         -19.82          170.1          17.15          56.96          134.9          70.37
   0.03527              -25.66           1.91          59.67          44.35         -12.09         -19.82          170.1          17.15          56.95          134.9          70.38
   0.07054              -25.66          1.913          59.67          44.35         -12.08         -19.82          170.0          17.15          56.95          134.9          70.39
    0.1058              -25.66          1.916          59.67          44.36         -12.08         -19.81          170.0          17.16          56.94          134.9           70.4
    0.1411              -25.66          1.919          59.66          44.36         -12.08         -19.81          170.0          17.16          56.94          134.9           70.4
    0.1764              -25.66          1.923          59.66          44.36         -12.07          -19.8          170.0          17.16          56.93          134.9          70.41
    0.2116              -25.66          1.927          59.66          44.36         -12.07         -19.79          170.0          17.16          56.92          134.9          70.42
    0.2469              -25.66          1.931          59.66          44.37         -12.06         -19.79          170.0          17.17          56.92          134.9          70.43
    0.2822              -25.66          1.935          59.66          44.37         -12.06         -19.78          170.0          17.17          56.91          134.9          70.44
    0.3174              -25.66           1.94          59.66          44.37         -12.05         -19.77          170.0          17.17           56.9          134.9          70.46
    0.3527              -25.66          1.945          59.65          44.38         -12.05         -19.76          170.0          17.18          56.89          134.9          70.47
     0.388              -25.66           1.95          59.65          44.38         -12.04         -19.76          170.0          17.18          56.88          134.9          70.48
    0.4232              -25.65          1.956          59.65          44.39         -12.04         -19.75          169.9          17.18          56.87          134.9           70.5
    0.4585              -25.65          1.963          59.65          44.39         -12.03         -19.74          169.9          17.19          56.86          134.9          70.51
    0.4938              -25.65          1.969          59.64           44.4         -12.02         -19.72          169.9          17.19          56.84          134.9          70.53
    0.5291              -25.65          1.977          59.64           44.4         -12.02         -19.71          169.9           17.2          56.83          134.9          70.55
    0.5643              -25.65          1.985          59.64          44.41         -12.01          -19.7          169.9           17.2          56.82          134.8          70.57
    0.5996              -25.65          1.994          59.63          44.42          -12.0         -19.69          169.8          17.21           56.8          134.8          70.59
    0.6349              -25.65          2.003          59.63          44.42         -11.99         -19.67          169.8          17.22          56.78          134.8          70.61
    0.6701              -25.65          2.014          59.63          44.43         -11.98         -19.65          169.8          17.22          56.76          134.8          70.64
    0.7054              -25.64          2.025          59.62          44.44         -11.97         -19.63          169.8          17.23          56.74          134.8          70.67
